<?xml version="1.0" encoding="utf-8"?>
<!-- Generator: Adobe Illustrator 26.0.3, SVG Export Plug-In . SVG Version: 6.00 Build 0)  -->
<svg version="1.1" id="Слой_1" xmlns="http://www.w3.org/2000/svg" xmlns:xlink="http://www.w3.org/1999/xlink" x="0px" y="0px"
	 viewBox="0 0 595.3 841.9" style="enable-background:new 0 0 595.3 841.9;" xml:space="preserve">
<style type="text/css">
	.st0{fill:#FFFFFF;stroke:#000000;stroke-miterlimit:10;}
	.st1{fill:#FFFFFF;stroke:#FFFFFF;stroke-miterlimit:10;}
</style>
<path class="st0" d="M353.4,739.7"/>
<polyline class="st0" points="302.7,537.3 302.7,704.9 392.5,704.9 392.5,537.3 "/>
<path class="st0" d="M222,467.6"/>
<polyline class="st0" points="0,0 0,0 0,0 "/>
<path class="st0" d="M498.1,485.9"/>
<path class="st0" d="M361,594.7c13.5,12.8,28.1,17.6,58.5,18.8c79.8,3.3,139.3-30.4,146.9-35.5c-19.3-8.8-60.3-24.6-89.6-56"/>
<path class="st0" d="M299,573.3"/>
<path class="st0" d="M336.5,607.3c-45.1,20.2-23.2,11.6-54.1,20.9c-59.8,17.8-140.6-10.7-151-27.9c16.3-10.6,72-17.7,96.9-55.4"/>
<path class="st0" d="M263.5,545.8c-50.4,21.8-106.7,0.8-115.9-9.8c14.6-6.5,45.6-18.1,67.7-41.2"/>
<path class="st0" d="M399.2,520.4c59.4,25.2,125.7,0.9,136.6-11.3c-17.1-7.5-53.7-20.9-79.8-47.6"/>
<path class="st0" d="M279.1,492.9c-42.8,25.3-90.5,0.9-98.4-11.3c12.4-7.5,38.7-21,57.5-47.7"/>
<path class="st0" d="M417.2,465.2c35.3,18.8,74.6,0.7,81.1-8.4c-10.2-5.6-31.9-15.6-47.4-35.6"/>
<path class="st0" d="M299,421.7c-46.9,27.7-99.3,1-107.9-12.4c13.6-8.2,42.4-23,63.1-52.4"/>
<path class="st0" d="M381.3,416.1c46.6,31.9,98.6,1.1,107.1-14.3c-13.5-9.5-42.1-26.5-62.6-60.1"/>
<path class="st0" d="M304.8,364c-37.9,3.1-71.8-10.9-78.7-18.9c14.6-6.5,45.5-18.1,67.7-41.2"/>
<path class="st0" d="M368,347.3c35.3,22.2,74.6,0.8,81.1-9.9c-10.2-6.6-31.9-18.4-47.4-41.9"/>
<path class="st0" d="M408.6,429.3"/>
<path class="st0" d="M408.6,429.3"/>
<path class="st0" d="M408.6,429.3"/>
<path class="st0" d="M318.9,310.1c-25.4,5.8-48.2-17-52.9-30c11.1-8.3,64.7-96.5,77.6-136.7c1.6-5,4,0,4,0
	c13.6,38.8,59.7,127.9,70.2,136.7c10,8.3-27.7,35.8-53.3,30"/>
<rect x="287.1" y="537.3" class="st1" width="49.4" height="55.2"/>
<rect x="323.3" y="589.4" class="st1" width="26.3" height="29.4"/>
<path class="st1" d="M428.4,577.2h-39.6c-2.7,0-4.9-2.2-4.9-4.9v-55.6c0-2.7,2.2-4.9,4.9-4.9h39.6c2.7,0,4.9,2.2,4.9,4.9v55.6
	C433.3,575,431.1,577.2,428.4,577.2z"/>
<rect x="311.8" y="564.9" class="st1" width="63.4" height="67.5"/>
<path class="st1" d="M388.9,438.9l-19.5,5.6c-7.8,2.2-15.8-3-17.8-11.8l-15-65c-2-8.7,2.7-17.6,10.5-19.9l19.5-5.6
	c7.8-2.2,15.8,3,17.8,11.8l15,65C401.4,427.7,396.7,436.6,388.9,438.9z"/>
</svg>
